<svg width="512" height="512" xmlns="http://www.w3.org/2000/svg">

 <g>
  <title>background</title>
  <rect fill="none" id="canvas_background" height="402" width="582" y="-1" x="-1"/>
 </g>
 <g>
  <title>Layer 1</title>
  <ellipse stroke="null" ry="255.357447" rx="255.357447" id="svg_4" cy="255.8115" cx="255.999979" stroke-opacity="null" stroke-width="null" fill="#f2f2f2"/>
  <path stroke="null" id="svg_3" fill="#cd6699" d="m269.38044,206.333735c-8.108769,0.035768 -15.130895,1.99092 -20.994841,4.887125c-2.136008,-4.308791 -4.344559,-8.073001 -4.706774,-10.896159c-0.433247,-3.294691 -0.904781,-5.248836 -0.397479,-9.158133c0.507302,-3.910305 2.786886,-9.448812 2.751118,-9.846291c-0.035768,-0.397983 -0.506798,-2.389407 -5.176292,-2.425679c-4.669494,-0.035768 -8.687103,0.904781 -9.158133,2.135504c-0.471534,1.230723 -1.375307,4.018617 -1.918377,6.914318c-0.832741,4.23524 -9.339996,19.366638 -14.154578,27.257777c-1.592434,-3.076053 -2.931469,-5.791906 -3.221644,-7.963682c-0.434254,-3.294691 -0.904781,-5.248836 -0.397983,-9.158133c0.506798,-3.910305 2.786886,-9.448812 2.750614,-9.846291c-0.036272,-0.397983 -0.506798,-2.389407 -5.175789,-2.425679c-4.669998,-0.035768 -8.687103,0.904781 -9.158637,2.136008c-0.470526,1.23022 -0.977324,4.126424 -1.918377,6.914821c-0.940549,2.785878 -12.271465,27.98019 -15.23971,34.532797c-1.520898,3.329452 -2.823157,6.008529 -3.764714,7.819098c-0.14408,0.289167 -0.252895,0.470526 -0.325439,0.615614c0.108312,-0.180855 0.181359,-0.362718 0.181359,-0.289167c-0.796469,1.555658 -1.267499,2.424671 -1.267499,2.424671l0,0.035768c-0.615614,1.15818 -1.303267,2.207544 -1.628706,2.207544c-0.217631,0 -0.687653,-3.039781 0.108815,-7.202981c1.700746,-8.760151 5.718859,-22.369644 5.682587,-22.841177c-0.036272,-0.253399 0.759693,-2.60603 -2.642806,-3.873529c-3.293684,-1.194452 -4.488639,0.796973 -4.777806,0.796973s-0.506798,0.724429 -0.506798,0.724429s3.656402,-15.348526 -7.022629,-15.348526c-6.660415,0 -15.92686,7.312804 -20.487539,13.936947c-2.859933,1.556666 -9.050325,4.922893 -15.565653,8.506248c-2.497719,1.375811 -5.067981,2.786886 -7.493156,4.126928c-0.180855,-0.181863 -0.325943,-0.362718 -0.506798,-0.543574c-12.959119,-13.827124 -36.886436,-23.600871 -35.872336,-42.171544c0.361711,-6.76923 2.714846,-24.541923 46.008298,-46.116609c35.474857,-17.664885 63.854038,-12.814032 68.741667,-2.027192c7.021622,15.384797 -15.168174,44.017881 -52.017835,48.143802c-14.045259,1.556666 -21.429095,-3.873025 -23.275432,-5.899714c-1.918881,-2.135504 -2.208551,-2.244823 -2.932477,-1.846337c-1.194955,0.651382 -0.434254,2.53399 0,3.655898c1.08614,2.859429 5.610547,7.92741 13.321333,10.4614c6.768223,2.208048 23.23916,3.439275 43.147861,-4.271512c22.370651,-8.615567 39.782641,-32.615428 34.678388,-52.704984c-5.21206,-20.415499 -39.057708,-27.112689 -71.093291,-15.746508c-19.076464,6.76923 -39.709594,17.41199 -54.551321,31.275385c-17.628613,16.507209 -20.451771,30.877403 -19.294095,36.88694c4.126928,21.320279 33.519705,35.220955 45.284372,45.500996c-0.579342,0.325943 -1.122412,0.615614 -1.628706,0.905284c-5.900218,2.931469 -28.307141,14.659865 -33.918191,27.041153c-6.333968,14.044755 1.049364,24.107165 5.900218,25.483479c15.130895,4.198464 30.624004,-3.366731 38.9499,-15.783284c8.324889,-12.415545 7.311796,-28.63258 3.475043,-36.017423c-0.036776,-0.108312 -0.108815,-0.179848 -0.144584,-0.289671c1.51989,-0.904277 3.076053,-1.809561 4.633223,-2.714342c3.004013,-1.773793 5.93649,-3.403507 8.506248,-4.814078c-1.448354,3.909801 -2.497719,8.613552 -3.040788,15.420062c-0.651382,7.963178 2.642806,18.279995 6.914318,22.334379c1.881601,1.773793 4.162192,1.810569 5.574275,1.810569c4.995437,0 7.239253,-4.127432 9.736971,-9.050325c3.07706,-6.010041 5.791906,-12.996398 5.791906,-12.996398s-3.402499,18.89712 5.900218,18.89712c3.402499,0 6.806006,-4.380327 8.325393,-6.624647l0,0.035768c0,0 0.073047,-0.14408 0.253903,-0.433247c0.361711,-0.543574 0.542566,-0.869516 0.542566,-0.869516l0,-0.109319c1.375307,-2.352631 4.380327,-7.746555 8.904231,-16.650785c5.864953,-11.511772 11.474996,-25.882973 11.474996,-25.882973s0.506798,3.512322 2.245327,9.339996c1.013092,3.438771 3.148596,7.203485 4.849846,10.859887c-1.374803,1.882105 -2.208048,2.968245 -2.208048,2.968245s0,0.035768 0.035264,0.07204c-1.085636,1.448858 -2.315856,3.005524 -3.582851,4.525918c-4.633726,5.501731 -10.135961,11.800939 -10.859383,13.6105c-0.869516,2.136008 -0.651885,3.727434 1.013596,4.959165c1.23022,0.941556 3.402499,1.085636 5.682587,0.905284c4.1632,-0.290678 7.095173,-1.303267 8.506752,-1.95616c2.243816,-0.794958 4.850853,-2.06296 7.3123,-3.83625c4.524911,-3.329452 7.276532,-8.107762 7.022126,-14.406466c-0.144584,-3.475043 -1.267499,-6.950589 -2.642806,-10.207498c0.398486,-0.579846 0.833245,-1.195963 1.231227,-1.810065c7.16822,-10.462912 12.706224,-21.936397 12.706224,-21.936397s0.506798,3.510307 2.243816,9.338485c0.869013,2.932477 2.570262,6.154121 4.126424,9.302717c-6.732958,5.466467 -10.895151,11.801947 -12.343505,15.963635c-2.679078,7.710787 -0.579342,11.184822 3.366227,11.982802c1.773793,0.361711 4.307784,-0.471534 6.190392,-1.268003c2.352631,-0.796469 5.176292,-2.063464 7.818594,-4.018113c4.524911,-3.329452 8.905238,-7.999954 8.616071,-14.334426c-0.109319,-2.859933 -0.905284,-5.719362 -1.955152,-8.47048c5.682587,-2.388399 13.068438,-3.692674 22.479467,-2.60603c20.162604,2.352631 24.107669,14.949536 23.347472,20.197868c-0.75919,5.285612 -4.994429,8.181817 -6.406512,9.050325c-1.412586,0.869013 -1.846337,1.194955 -1.737018,1.846337c0.180352,0.941052 0.831733,0.905284 2.026185,0.68715c1.665985,-0.289167 10.570216,-4.271512 10.967695,-14.008987c0.580349,-12.307737 -11.255854,-25.84519 -32.214927,-25.736879l0,0zm-155.400107,52.379041c-6.659911,7.276028 -15.999403,10.027146 -20.017012,7.710283c-4.307784,-2.496711 -2.606534,-13.212014 5.610547,-20.959072c4.995437,-4.705262 11.438725,-9.048814 15.710236,-11.727388c0.977324,-0.578838 2.389407,-1.447851 4.126928,-2.497719c0.289671,-0.179848 0.434254,-0.252895 0.434254,-0.252895c0.325439,-0.218135 0.687653,-0.398486 1.049868,-0.616117c3.003509,11.00447 0.107808,20.70517 -6.914821,28.342909l0,0zm48.651103,-33.085451c-2.316863,5.682587 -7.203988,20.162604 -10.171226,19.402406c-2.53399,-0.651885 -4.09116,-11.692124 -0.506798,-22.551003c1.809561,-5.466467 5.646315,-11.981795 7.92741,-14.515281c3.655394,-4.09116 7.673507,-5.394427 8.615063,-3.765217c1.266491,2.135504 -4.417103,17.882012 -5.86445,21.429095l0,0zm40.179616,19.186287c-0.976821,0.506294 -1.882105,0.831733 -2.316359,0.578334c-0.325439,-0.180855 0.398486,-0.869013 0.398486,-0.869013s5.030701,-5.39342 7.022126,-7.855874c1.15818,-1.447347 2.497215,-3.1491 3.945569,-5.030701c0,0.179848 0.035264,0.362215 0.035264,0.578334c-0.034761,6.480567 -6.260921,10.861398 -9.085086,12.598919zm30.986722,-7.059405c-0.723925,-0.506798 -0.616117,-2.208048 1.809561,-7.493659c0.941556,-2.063464 3.113836,-5.538003 6.877542,-8.868462c0.434758,1.375307 0.687653,2.67807 0.687653,3.908793c-0.036776,8.145041 -5.863946,11.185829 -9.374757,12.453328l0,0z"/>
 </g>
</svg>