<svg width="512" height="512" xmlns="http://www.w3.org/2000/svg">

 <g>
  <title>background</title>
  <rect fill="none" id="canvas_background" height="402" width="582" y="-1" x="-1"/>
 </g>
 <g>
  <title>Layer 1</title>
  <ellipse stroke="null" ry="255.357447" rx="255.357447" id="svg_4" cy="255.8115" cx="255.999979" stroke-opacity="null" stroke-width="null" fill="#f2f2f2"/>
  <path stroke="null" id="svg_3" fill="#cd6699" d="m401.152327,263.968092c-14.038727,0.061925 -26.196147,3.446884 -36.348407,8.461089c-3.698074,-7.459818 -7.521744,-13.976802 -8.148846,-18.86454c-0.750081,-5.704105 -1.566448,-9.08732 -0.688156,-15.855494c0.878293,-6.769918 4.82494,-16.358746 4.763015,-17.046902c-0.061925,-0.689028 -0.87742,-4.136785 -8.961725,-4.199582c-8.084304,-0.061925 -15.039998,1.566448 -15.855494,3.697202c-0.816367,2.130754 -2.381071,6.957438 -3.321289,11.970771c-1.441726,7.332479 -16.170353,33.529498 -24.505848,47.19144c-2.756984,-5.325576 -5.075258,-10.027538 -5.577638,-13.787537c-0.751825,-5.704105 -1.566448,-9.08732 -0.689028,-15.855494c0.87742,-6.769918 4.82494,-16.358746 4.762143,-17.046902c-0.062797,-0.689028 -0.87742,-4.136785 -8.960853,-4.199582c-8.085177,-0.061925 -15.039998,1.566448 -15.856366,3.698074c-0.814623,2.129881 -1.692043,7.144086 -3.321289,11.971643c-1.628374,4.823196 -21.245611,48.442157 -26.384539,59.786698c-2.633134,5.764286 -4.887738,10.402578 -6.517856,13.53722c-0.249446,0.500636 -0.437838,0.814623 -0.563433,1.065813c0.18752,-0.313115 0.313987,-0.627975 0.313987,-0.500636c-1.378928,2.693315 -2.194423,4.197838 -2.194423,4.197838l0,0.061925c-1.065813,2.005159 -2.256349,3.821925 -2.819782,3.821925c-0.376785,0 -1.190536,-5.262778 0.188392,-12.470535c2.944504,-15.166466 9.901071,-38.728607 9.838273,-39.544974c-0.062797,-0.43871 1.315259,-4.511825 -4.575495,-6.706248c-5.702361,-2.067956 -7.771189,1.3798 -8.271825,1.3798s-0.87742,1.254205 -0.87742,1.254205s6.330336,-26.572932 -12.158292,-26.572932c-11.531189,0 -27.574203,12.660671 -35.470115,24.129063c-4.951408,2.695059 -15.668846,8.523015 -26.948844,14.726883c-4.324305,2.381944 -8.774205,4.82494 -12.972914,7.144959c-0.313115,-0.31486 -0.564305,-0.627975 -0.87742,-0.94109c-22.436147,-23.938926 -63.861557,-40.860232 -62.105844,-73.011674c0.626231,-11.719581 4.700218,-42.489478 79.654253,-79.841773c61.417688,-30.583249 110.550617,-22.184957 119.012579,-3.509682c12.156547,26.635729 -26.260689,76.208241 -90.058576,83.351455c-24.316583,2.695059 -37.100233,-6.705376 -40.296799,-10.214186c-3.322162,-3.697202 -3.823669,-3.886467 -5.077003,-3.196567c-2.068828,1.127738 -0.751825,4.387102 0,6.329464c1.880436,4.950535 9.71355,13.72474 23.06325,18.111842c11.717837,3.822797 40.234002,5.954423 74.701973,-7.395276c38.730351,-14.916148 68.875762,-56.467153 60.03876,-91.248239c-9.02365,-35.345392 -67.620684,-46.94025 -123.08395,-27.26196c-33.027118,11.719581 -68.749295,30.145411 -94.444806,54.147134c-30.520452,28.578963 -35.408189,53.458106 -33.403903,63.862429c7.144959,36.91184 58.032729,60.978106 78.40092,78.77596c-1.003015,0.564305 -1.943233,1.065813 -2.819782,1.567321c-10.215058,5.075258 -49.008207,25.380652 -58.722629,46.8164c-10.966011,24.315711 1.816766,41.736781 10.215058,44.119597c26.196147,7.268809 53.019396,-5.828828 67.434036,-27.325629c14.412896,-21.495057 12.658927,-49.57164 6.016348,-62.357034c-0.06367,-0.18752 -0.188392,-0.311371 -0.250318,-0.501508c2.631389,-1.565576 5.325576,-3.132897 8.021507,-4.699345c5.200853,-3.070972 10.277856,-5.892498 14.726883,-8.334622c-2.507539,6.769046 -4.324305,14.912659 -5.264523,26.696782c-1.127738,13.786665 4.575495,31.64819 11.970771,38.667554c3.25762,3.070972 7.206012,3.134641 9.650753,3.134641c8.64861,0 12.533332,-7.145831 16.857637,-15.668846c5.32732,-10.405195 10.027538,-22.500689 10.027538,-22.500689s-5.890753,32.716619 10.215058,32.716619c5.890753,0 11.783251,-7.583669 14.413768,-11.469264l0,0.061925c0,0 0.126467,-0.249446 0.439582,-0.750081c0.626231,-0.94109 0.939346,-1.505395 0.939346,-1.505395l0,-0.189265c2.381071,-4.073115 7.583669,-13.411625 15.415911,-28.827536c10.154005,-19.930353 19.866683,-44.811241 19.866683,-44.811241s0.87742,6.08089 3.887339,16.170353c1.753969,5.953551 5.451171,12.471407 8.396548,18.801742c-2.380199,3.258492 -3.822797,5.138928 -3.822797,5.138928s0,0.061925 0.061053,0.124723c-1.879564,2.508411 -4.009445,5.20347 -6.202996,7.835731c-8.022379,9.525158 -17.548409,20.430988 -18.80087,23.563885c-1.505395,3.698074 -1.12861,6.453314 1.754841,8.585812c2.129881,1.630118 5.890753,1.879564 9.838273,1.567321c7.207756,-0.503252 12.283886,-2.256349 14.727755,-3.386703c3.884722,-1.376312 8.398292,-3.571607 12.659799,-6.641707c7.833987,-5.764286 12.597874,-14.036983 12.157419,-24.941941c-0.250318,-6.016348 -2.194423,-12.033569 -4.575495,-17.67226c0.6899,-1.003888 1.442598,-2.070573 2.131626,-3.133769c12.410354,-18.114459 21.998309,-37.978526 21.998309,-37.978526s0.87742,6.077401 3.884722,16.167737c1.504523,5.077003 4.4499,10.654641 7.144086,16.105811c-11.656784,9.464105 -18.862796,20.432733 -21.370334,27.637872c-4.638292,13.349699 -1.003015,19.364303 5.827956,20.745848c3.070972,0.626231 7.458074,-0.816367 10.717438,-2.195296c4.073115,-1.378928 8.961725,-3.572479 13.536348,-6.956566c7.833987,-5.764286 15.417656,-13.850335 14.91702,-24.817219c-0.189265,-4.951408 -1.567321,-9.901943 -3.384959,-14.664958c9.838273,-4.13504 22.625412,-6.393133 38.918743,-4.511825c34.907554,4.073115 41.737653,25.882159 40.421522,34.968607c-1.314386,9.15099 -8.646865,14.165195 -11.091606,15.668846c-2.445613,1.504523 -3.196567,2.068828 -3.007302,3.196567c0.312243,1.629246 1.439981,1.567321 3.507937,1.189664c2.884324,-0.500636 18.300235,-7.395276 18.988391,-24.253786c1.00476,-21.308409 -19.487282,-44.745827 -55.773764,-44.558307l0,0zm-269.044501,90.683934c-11.530317,12.597002 -27.699798,17.360017 -34.655492,13.348827c-7.458074,-4.32256 -4.512697,-22.873985 9.71355,-36.286482c8.64861,-8.14623 19.803886,-15.666229 27.199162,-20.303649c1.692043,-1.002143 4.136785,-2.506666 7.144959,-4.324305c0.501508,-0.311371 0.751825,-0.437838 0.751825,-0.437838c0.563433,-0.377657 1.190536,-0.6899 1.817638,-1.066685c5.199981,19.05206 0.186648,35.8469 -11.971643,49.070132l0,0zm84.229748,-57.280904c-4.01119,9.838273 -12.472279,34.907554 -17.609462,33.591423c-4.387102,-1.12861 -7.083033,-20.242596 -0.87742,-39.042594c3.132897,-9.464105 9.775476,-20.744104 13.72474,-25.130334c6.328591,-7.083033 13.285158,-9.339382 14.915276,-6.518728c2.192679,3.697202 -7.647339,30.959162 -10.153133,37.100233l0,0zm69.563046,33.217255c-1.691171,0.876548 -3.258492,1.439981 -4.010317,1.001271c-0.563433,-0.313115 0.6899,-1.504523 0.6899,-1.504523s8.709663,-9.337638 12.157419,-13.600889c2.005159,-2.505794 4.323433,-5.452043 6.830971,-8.709663c0,0.311371 0.061053,0.627103 0.061053,1.001271c-0.060181,11.219818 -10.839544,18.804359 -15.729026,21.812533zm53.647371,-12.221961c-1.253333,-0.87742 -1.066685,-3.822797 3.132897,-12.973787c1.630118,-3.572479 5.39099,-9.587955 11.907102,-15.353986c0.752698,2.381071 1.190536,4.636548 1.190536,6.767302c-0.06367,14.101525 -10.152261,19.366048 -16.230534,21.560471l0,0z"/>
 </g>
</svg>