<svg width="512" height="512" xmlns="http://www.w3.org/2000/svg">

 <g>
  <title>background</title>
  <rect fill="none" id="canvas_background" height="402" width="582" y="-1" x="-1"/>
 </g>
 <g>
  <title>Layer 1</title>
  <ellipse stroke="null" ry="255.357447" rx="255.357447" id="svg_4" cy="257.095348" cx="255.999979" stroke-opacity="null" stroke-width="null" fill="#f2f2f2"/>
  <path stroke="null" id="svg_3" fill="#cd6699" d="m407.320559,264.167088c-14.263348,0.062916 -26.615286,3.502035 -36.929983,8.596467c-3.757244,-7.579176 -7.642092,-14.200431 -8.279228,-19.166373c-0.762082,-5.795371 -1.591512,-9.232717 -0.699166,-16.109182c0.892345,-6.878237 4.90214,-16.620486 4.839223,-17.319653c-0.062916,-0.700052 -0.891459,-4.202973 -9.105113,-4.266775c-8.213654,-0.062916 -15.280639,1.591512 -16.109182,3.756357c-0.829429,2.164846 -2.419169,7.068758 -3.37443,12.162304c-1.464793,7.449799 -16.429079,34.065971 -24.897942,47.946505c-2.801096,-5.410785 -5.156462,-10.187979 -5.66688,-14.008139c-0.763855,-5.795371 -1.591512,-9.232717 -0.700052,-16.109182c0.891459,-6.878237 4.90214,-16.620486 4.838337,-17.319653c-0.063802,-0.700052 -0.891459,-4.202973 -9.104227,-4.266775c-8.21454,-0.062916 -15.280639,1.591512 -16.110068,3.757244c-0.827657,2.16396 -1.719116,7.258392 -3.37443,12.16319c-1.654428,4.900367 -21.585542,49.217233 -26.806693,60.743287c-2.675264,5.856515 -4.965942,10.56902 -6.622142,13.753816c-0.253437,0.508646 -0.444843,0.827657 -0.572448,1.082866c0.190521,-0.318125 0.319011,-0.638023 0.319011,-0.508646c-1.400991,2.736408 -2.229534,4.265003 -2.229534,4.265003l0,0.062916c-1.082866,2.037241 -2.29245,3.883076 -2.864898,3.883076c-0.382814,0 -1.209584,-5.346983 0.191407,-12.670064c2.991617,-15.40913 10.059488,-39.348266 9.995686,-40.177695c-0.063802,-0.44573 1.336303,-4.584014 -4.648703,-6.813549c-5.793599,-2.101044 -7.895528,1.401877 -8.404174,1.401877s-0.891459,1.274273 -0.891459,1.274273s6.431621,-26.998099 -12.352825,-26.998099c-11.715688,0 -28.015391,12.863243 -36.037638,24.515129c-5.03063,2.73818 -15.919548,8.659383 -27.380027,14.962514c-4.393494,2.420055 -8.914592,4.90214 -13.180482,7.259278c-0.318125,-0.319897 -0.573334,-0.638023 -0.891459,-0.956148c-22.795126,-24.321949 -64.883344,-41.513998 -63.099539,-74.179864c0.63625,-11.907095 4.775421,-43.169311 80.928724,-81.119244c62.400373,-31.072582 112.319431,-22.539917 120.916784,-3.565837c12.351052,27.061902 -26.68086,77.427575 -91.499516,84.685081c-24.705649,2.73818 -37.693838,-6.812663 -40.94155,-10.377613c-3.375316,-3.756357 -3.884848,-3.94865 -5.158235,-3.247712c-2.10193,1.145782 -0.763855,4.457296 0,6.430735c1.910523,5.029744 9.868968,13.944336 23.432263,18.401632c11.905323,3.883962 40.877747,6.049694 75.897207,-7.513601c39.350038,-15.154807 69.977776,-57.370629 60.999382,-92.708214c-9.168029,-35.910919 -68.702618,-47.691296 -125.053297,-27.698152c-33.555553,11.907095 -69.849286,30.627739 -95.955926,55.01349c-31.00878,29.036227 -35.974722,54.313438 -33.938366,64.88423c7.259278,37.502431 58.961255,61.953757 79.655337,80.036378c-1.019064,0.573334 -1.974325,1.082866 -2.864898,1.592398c-10.378499,5.156462 -49.792339,25.786743 -59.662193,47.565464c-11.141468,24.704763 1.845835,42.404571 10.378499,44.825512c26.615286,7.38511 53.867708,-5.922089 68.512983,-27.76284c14.643503,-21.838979 12.86147,-50.364787 6.11261,-63.354748c-0.064688,-0.190521 -0.191407,-0.316353 -0.254323,-0.509532c2.673492,-1.590626 5.410785,-3.183023 8.149851,-4.774535c5.284067,-3.120107 10.442302,-5.986778 14.962514,-8.467976c-2.547659,6.877351 -4.393494,15.151262 -5.348755,27.123932c-1.145782,14.007252 4.648703,32.154562 12.162304,39.286236c3.309742,3.120107 7.321308,3.184796 9.805165,3.184796c8.786988,0 12.733866,-7.260164 17.12736,-15.919548c5.412558,-10.571678 10.187979,-22.860701 10.187979,-22.860701s-5.985006,33.240086 10.378499,33.240086c5.985006,0 11.971783,-7.705008 14.644389,-11.652772l0,0.062916c0,0 0.128491,-0.253437 0.446616,-0.762082c0.63625,-0.956148 0.954375,-1.529482 0.954375,-1.529482l0,-0.192293c2.419169,-4.138285 7.705008,-13.626211 15.662566,-29.288777c10.316469,-20.249239 20.184551,-45.528222 20.184551,-45.528222s0.891459,6.178185 3.949537,16.429079c1.782032,6.048808 5.53839,12.67095 8.530893,19.102571c-2.418283,3.310628 -3.883962,5.221151 -3.883962,5.221151s0,0.062916 0.06203,0.126718c-1.909637,2.548545 -4.073596,5.286725 -6.302245,7.961103c-8.150737,9.677561 -17.829184,20.757885 -19.101685,23.940908c-1.529482,3.757244 -1.146668,6.556567 1.782918,8.723185c2.16396,1.6562 5.985006,1.909637 9.995686,1.592398c7.323081,-0.511304 12.480429,-2.29245 14.9634,-3.440891c3.946878,-1.398333 8.532665,-3.628753 12.862356,-6.747974c7.959331,-5.856515 12.79944,-14.261575 12.351938,-25.341013c-0.254323,-6.11261 -2.229534,-12.226106 -4.648703,-17.955017c0.700939,-1.01995 1.465679,-2.103702 2.165732,-3.18391c12.60892,-18.404291 22.350283,-38.586183 22.350283,-38.586183s0.891459,6.17464 3.946878,16.426421c1.528596,5.158235 4.521098,10.825115 7.258392,16.363505c-11.843293,9.615531 -19.164601,20.759657 -21.71226,28.080079c-4.712505,13.563295 -1.019064,19.674133 5.921203,21.077782c3.120107,0.63625 7.577403,-0.829429 10.888917,-2.23042c4.138285,-1.400991 9.105113,-3.629639 13.75293,-7.067872c7.959331,-5.856515 15.664339,-14.071941 15.155693,-25.214295c-0.192293,-5.03063 -1.592398,-10.060374 -3.439119,-14.899598c9.995686,-4.201201 22.987419,-6.495424 39.541445,-4.584014c35.466076,4.138285 42.405457,26.296275 41.068268,35.528106c-1.335417,9.297406 -8.785215,14.391838 -11.269072,15.919548c-2.484743,1.528596 -3.247712,2.10193 -3.055419,3.247712c0.317239,1.655314 1.463021,1.592398 3.564065,1.208698c2.930473,-0.508646 18.593039,-7.513601 19.292205,-24.641847c1.020836,-21.649344 -19.799079,-45.461762 -56.666146,-45.271241l0,0zm-273.349222,92.13488c-11.714802,12.798554 -28.142995,17.637778 -35.209981,13.562409c-7.577403,-4.391722 -4.584901,-23.23997 9.868968,-36.867067c8.786988,-8.27657 20.120749,-15.916889 27.63435,-20.628508c1.719116,-1.018178 4.202973,-2.546773 7.259278,-4.393494c0.509532,-0.316353 0.763855,-0.444843 0.763855,-0.444843c0.572448,-0.3837 1.209584,-0.700939 1.846721,-1.083752c5.283181,19.356894 0.189634,36.420451 -12.16319,49.855256l0,0zm85.577427,-58.1974c-4.075369,9.995686 -12.671836,35.466076 -17.891214,34.128887c-4.457296,-1.146668 -7.196362,-20.566478 -0.891459,-39.667277c3.183023,-9.615531 9.931884,-21.07601 13.944336,-25.53242c6.429849,-7.196362 13.497721,-9.488812 15.153921,-6.623028c2.227762,3.756357 -7.769696,31.454509 -10.315583,37.693838l0,0zm70.676057,33.748732c-1.71823,0.890573 -3.310628,1.463021 -4.074483,1.017291c-0.572448,-0.318125 0.700939,-1.528596 0.700939,-1.528596s8.849018,-9.48704 12.351938,-13.818504c2.037241,-2.545887 4.392608,-5.539276 6.940267,-8.849018c0,0.316353 0.06203,0.637136 0.06203,1.017291c-0.061144,11.399335 -11.012977,19.105229 -15.980691,22.161534zm54.505731,-12.417513c-1.273387,-0.891459 -1.083752,-3.883962 3.183023,-13.181368c1.6562,-3.629639 5.477246,-9.741363 12.097616,-15.59965c0.764741,2.419169 1.209584,4.710733 1.209584,6.875579c-0.064688,14.32715 -10.314697,19.675905 -16.490223,21.905439l0,0z"/>
 </g>
</svg>